<?xml version="1.0" encoding="UTF-8"?>
<svg enable-background="new 0 0 128 128" version="1.1" viewBox="0 0 128 128" xml:space="preserve" xmlns="http://www.w3.org/2000/svg">
	<path d="m79 90.5c0-1.381-1.119-2.5-2.5-2.5h-26c-1.381 0-2.5 1.119-2.5 2.5s1.119 2.5 2.5 2.5h26c1.381 0 2.5-1.119 2.5-2.5z"/>
	<path d="m79 96.5c0-1.381-1.119-2.5-2.5-2.5h-26c-1.381 0-2.5 1.119-2.5 2.5s1.119 2.5 2.5 2.5h26c1.381 0 2.5-1.119 2.5-2.5z"/>
	<path d="m79 102.5c0-1.381-1.119-2.5-2.5-2.5h-26c-1.381 0-2.5 1.119-2.5 2.5s1.119 2.5 2.5 2.5h26c1.381 0 2.5-1.119 2.5-2.5z"/>
	<path d="m63.425 109.96c3.514 0 6.67-0.958 8.841-3.958h-17.682c2.171 3 5.327 3.958 8.841 3.958z"/>
	<path d="m92.231 45h-4e-3c1.018-4 1.57-6.544 1.57-9.917 0-16.732-13.564-30.431-30.297-30.431s-30.297 13.765-30.297 30.497c0 3.374 0.552 5.851 1.57 9.851h-4e-3c6e-3 0 0.013-0.237 0.019-0.222 0.844 2.501 2.02 4.722 3.451 6.882 4.37 7.912 8.761 13.747 9.761 26.338v4.512c0 2.485 1.991 4.49 4.476 4.49h21.898c2.485 0 4.5-2.01 4.5-4.495 0-15.787 5.038-22.18 9.899-30.981 1.432-2.161 2.595-4.246 3.44-6.747 5e-3 -0.015 0.012 0.223 0.018 0.223z" fill="#ff0"/>
<g fill="none" opacity=".5">
	<path d="m36.464 35.098l0.338 1.301c0.074 0.286 0.143 0.55 0.19 0.814h0.015c0.058-0.259 0.143-0.534 0.228-0.809l0.417-1.306h0.391l0.396 1.279c0.095 0.307 0.169 0.576 0.228 0.836h0.016c0.042-0.259 0.111-0.529 0.196-0.83l0.365-1.285h0.46l-0.825 2.559h-0.423l-0.391-1.221c-0.09-0.285-0.164-0.539-0.228-0.84h-0.01c-0.064 0.306-0.143 0.571-0.233 0.846l-0.412 1.216h-0.422l-0.772-2.559h0.476z"/>
	<path d="m40.417 35.098l0.338 1.301c0.074 0.286 0.143 0.55 0.19 0.814h0.016c0.058-0.259 0.143-0.534 0.228-0.809l0.417-1.306h0.391l0.396 1.279c0.095 0.307 0.169 0.576 0.228 0.836h0.015c0.042-0.259 0.111-0.529 0.196-0.83l0.365-1.285h0.46l-0.825 2.559h-0.422l-0.391-1.221c-0.09-0.285-0.164-0.539-0.227-0.84h-0.011c-0.064 0.306-0.143 0.571-0.233 0.846l-0.412 1.216h-0.423l-0.772-2.559h0.476z"/>
	<path d="m44.37 35.098l0.338 1.301c0.074 0.286 0.143 0.55 0.19 0.814h0.016c0.058-0.259 0.143-0.534 0.228-0.809l0.417-1.306h0.391l0.396 1.279c0.095 0.307 0.169 0.576 0.228 0.836h0.015c0.042-0.259 0.111-0.529 0.196-0.83l0.365-1.285h0.46l-0.825 2.559h-0.423l-0.391-1.221c-0.09-0.285-0.164-0.539-0.227-0.84h-0.011c-0.064 0.306-0.143 0.571-0.233 0.846l-0.412 1.216h-0.423l-0.772-2.559h0.477z"/>
	<path d="m47.757 37.382c0-0.196 0.132-0.333 0.317-0.333s0.312 0.138 0.312 0.333c0 0.19-0.122 0.333-0.317 0.333-0.185-1e-3 -0.312-0.144-0.312-0.333z"/>
	<path d="m49.438 34.093v3.563h-0.46v-3.563h0.46z"/>
	<path d="m52.049 37.561c-0.122 0.064-0.391 0.148-0.735 0.148-0.772 0-1.274-0.523-1.274-1.306 0-0.787 0.54-1.358 1.375-1.358 0.275 0 0.518 0.069 0.645 0.132l-0.106 0.36c-0.111-0.063-0.285-0.122-0.539-0.122-0.587 0-0.904 0.434-0.904 0.967 0 0.592 0.381 0.957 0.888 0.957 0.264 0 0.439-0.069 0.571-0.127l0.079 0.349z"/>
	<path d="m54.877 36.356c0 0.946-0.655 1.358-1.274 1.358-0.693 0-1.227-0.507-1.227-1.316 0-0.857 0.561-1.358 1.269-1.358 0.735 0 1.232 0.534 1.232 1.316zm-2.03 0.026c0 0.56 0.322 0.983 0.777 0.983 0.444 0 0.777-0.417 0.777-0.994 0-0.434-0.217-0.983-0.767-0.983-0.549 0-0.787 0.508-0.787 0.994z"/>
	<path d="m55.463 35.79c0-0.264-5e-3 -0.481-0.021-0.693h0.412l0.026 0.423h0.011c0.127-0.243 0.423-0.481 0.846-0.481 0.354 0 0.904 0.211 0.904 1.089v1.528h-0.465v-1.475c0-0.412-0.154-0.756-0.592-0.756-0.306 0-0.544 0.217-0.623 0.475-0.021 0.058-0.032 0.138-0.032 0.217v1.539h-0.465v-1.866z"/>
	<path d="m60.22 37.561c-0.122 0.064-0.391 0.148-0.735 0.148-0.772 0-1.274-0.523-1.274-1.306 0-0.787 0.54-1.358 1.375-1.358 0.275 0 0.518 0.069 0.645 0.132l-0.106 0.36c-0.111-0.063-0.285-0.122-0.539-0.122-0.587 0-0.904 0.434-0.904 0.967 0 0.592 0.381 0.957 0.888 0.957 0.264 0 0.439-0.069 0.571-0.127l0.079 0.349z"/>
	<path d="m60.763 35.896c0-0.301-5e-3 -0.56-0.021-0.798h0.407l0.016 0.502h0.021c0.116-0.343 0.397-0.56 0.709-0.56 0.053 0 0.09 5e-3 0.132 0.015v0.439c-0.048-0.011-0.095-0.016-0.158-0.016-0.328 0-0.56 0.248-0.624 0.598-0.011 0.063-0.021 0.137-0.021 0.217v1.364h-0.46v-1.761z"/>
	<path d="m63.882 37.656l-0.037-0.322h-0.016c-0.142 0.201-0.417 0.38-0.782 0.38-0.518 0-0.782-0.365-0.782-0.735 0-0.619 0.549-0.957 1.538-0.951v-0.053c0-0.211-0.058-0.592-0.581-0.592-0.238 0-0.486 0.074-0.666 0.19l-0.106-0.307c0.212-0.138 0.518-0.227 0.841-0.227 0.782 0 0.973 0.534 0.973 1.047v0.957c0 0.222 0.011 0.439 0.042 0.613h-0.424zm-0.069-1.305c-0.507-0.01-1.084 0.079-1.084 0.576 0 0.301 0.201 0.444 0.439 0.444 0.333 0 0.545-0.212 0.619-0.428 0.015-0.048 0.026-0.1 0.026-0.148v-0.444z"/>
	<path d="m65.06 37.656v-2.204h-0.36v-0.354h0.36v-0.122c0-0.36 0.079-0.687 0.296-0.893 0.174-0.169 0.407-0.238 0.624-0.238 0.164 0 0.307 0.037 0.396 0.074l-0.063 0.36c-0.069-0.032-0.164-0.058-0.296-0.058-0.397 0-0.497 0.349-0.497 0.74v0.138h0.619v0.354h-0.619v2.204h-0.46z"/>
	<path d="m67.174 34.363v0.735h0.666v0.354h-0.666v1.38c0 0.317 0.09 0.497 0.349 0.497 0.122 0 0.211-0.015 0.27-0.032l0.021 0.349c-0.09 0.037-0.233 0.063-0.412 0.063-0.217 0-0.392-0.069-0.502-0.196-0.132-0.138-0.18-0.365-0.18-0.666v-1.396h-0.396v-0.354h0.396v-0.613l0.454-0.121z"/>
	<path d="m68.299 37.18c0.138 0.09 0.381 0.185 0.614 0.185 0.338 0 0.497-0.169 0.497-0.381 0-0.222-0.132-0.343-0.475-0.47-0.46-0.164-0.677-0.418-0.677-0.724 0-0.412 0.333-0.751 0.883-0.751 0.259 0 0.486 0.074 0.629 0.158l-0.116 0.338c-0.1-0.063-0.285-0.148-0.523-0.148-0.275 0-0.428 0.159-0.428 0.349 0 0.211 0.153 0.306 0.486 0.434 0.444 0.169 0.672 0.391 0.672 0.771 0 0.45-0.349 0.767-0.957 0.767-0.28 0-0.539-0.069-0.719-0.174l0.114-0.354z"/>
	<path d="m70.456 35.79c0-0.264-5e-3 -0.481-0.021-0.693h0.407l0.021 0.412h0.015c0.143-0.243 0.381-0.47 0.804-0.47 0.349 0 0.613 0.211 0.724 0.513h0.01c0.079-0.143 0.18-0.254 0.286-0.333 0.153-0.116 0.322-0.179 0.565-0.179 0.338 0 0.841 0.222 0.841 1.11v1.506h-0.455v-1.449c0-0.491-0.179-0.788-0.555-0.788-0.264 0-0.47 0.196-0.549 0.423-0.021 0.064-0.037 0.148-0.037 0.233v1.58h-0.455v-1.533c0-0.407-0.179-0.704-0.534-0.704-0.291 0-0.502 0.233-0.576 0.466-0.026 0.069-0.037 0.148-0.037 0.227v1.544h-0.455v-1.865z"/>
	<path d="m76.28 37.656l-0.037-0.322h-0.016c-0.142 0.201-0.417 0.38-0.782 0.38-0.518 0-0.782-0.365-0.782-0.735 0-0.619 0.549-0.957 1.538-0.951v-0.053c0-0.211-0.058-0.592-0.581-0.592-0.238 0-0.486 0.074-0.666 0.19l-0.106-0.307c0.212-0.138 0.518-0.227 0.841-0.227 0.782 0 0.973 0.534 0.973 1.047v0.957c0 0.222 0.011 0.439 0.042 0.613h-0.424zm-0.069-1.305c-0.507-0.01-1.084 0.079-1.084 0.576 0 0.301 0.201 0.444 0.439 0.444 0.333 0 0.545-0.212 0.619-0.428 0.015-0.048 0.026-0.1 0.026-0.148v-0.444z"/>
	<path d="m77.41 35.79c0-0.264-5e-3 -0.481-0.021-0.693h0.412l0.026 0.423h0.011c0.127-0.243 0.423-0.481 0.846-0.481 0.354 0 0.904 0.211 0.904 1.089v1.528h-0.465v-1.475c0-0.412-0.153-0.756-0.592-0.756-0.306 0-0.544 0.217-0.623 0.475-0.021 0.058-0.032 0.138-0.032 0.217v1.539h-0.466v-1.866z"/>
	<path d="m80.232 37.382c0-0.196 0.132-0.333 0.317-0.333s0.312 0.138 0.312 0.333c0 0.19-0.122 0.333-0.317 0.333-0.184-1e-3 -0.312-0.144-0.312-0.333z"/>
	<path d="m83.261 37.561c-0.122 0.064-0.391 0.148-0.735 0.148-0.772 0-1.274-0.523-1.274-1.306 0-0.787 0.54-1.358 1.375-1.358 0.275 0 0.518 0.069 0.645 0.132l-0.106 0.36c-0.111-0.063-0.286-0.122-0.54-0.122-0.587 0-0.904 0.434-0.904 0.967 0 0.592 0.381 0.957 0.888 0.957 0.264 0 0.439-0.069 0.571-0.127l0.08 0.349z"/>
	<path d="m86.089 36.356c0 0.946-0.655 1.358-1.274 1.358-0.693 0-1.227-0.507-1.227-1.316 0-0.857 0.56-1.358 1.269-1.358 0.735 0 1.232 0.534 1.232 1.316zm-2.03 0.026c0 0.56 0.322 0.983 0.777 0.983 0.444 0 0.777-0.417 0.777-0.994 0-0.434-0.217-0.983-0.767-0.983-0.549 0-0.787 0.508-0.787 0.994z"/>
	<path d="m86.675 35.79c0-0.264-5e-3 -0.481-0.021-0.693h0.407l0.021 0.412h0.015c0.143-0.243 0.381-0.47 0.804-0.47 0.349 0 0.613 0.211 0.724 0.513h0.01c0.079-0.143 0.18-0.254 0.286-0.333 0.153-0.116 0.322-0.179 0.565-0.179 0.338 0 0.841 0.222 0.841 1.11v1.506h-0.455v-1.449c0-0.491-0.179-0.788-0.555-0.788-0.264 0-0.47 0.196-0.549 0.423-0.021 0.064-0.037 0.148-0.037 0.233v1.58h-0.455v-1.533c0-0.407-0.179-0.704-0.534-0.704-0.291 0-0.502 0.233-0.576 0.466-0.026 0.069-0.037 0.148-0.037 0.227v1.544h-0.455v-1.865z"/>
</g>
</svg>
